<svg width="44" height="44" viewBox="0 0 44 44" fill="none" xmlns="http://www.w3.org/2000/svg">
<g id="verificacao-de-escudo 1" clip-path="url(#clip0_4320_728)">
<path id="Vector" d="M36.5634 4.84377L21.9993 0.0166016L7.43535 4.84377C6.33805 5.20753 5.38327 5.90779 4.70662 6.8451C4.02997 7.7824 3.66586 8.90908 3.66602 10.0651V22.0001C3.66602 35.7941 20.5327 43.4116 21.255 43.7288L21.904 44.0166L22.5787 43.7929C23.3047 43.5509 40.3327 37.7246 40.3327 22.0001V10.0651C40.3328 8.90908 39.9687 7.7824 39.2921 6.8451C38.6154 5.90779 37.6606 5.20753 36.5634 4.84377ZM22.8134 25.6466C22.4929 25.9692 22.1115 26.225 21.6913 26.399C21.2712 26.5731 20.8206 26.6619 20.3659 26.6604H20.3053C19.8413 26.6533 19.3835 26.5522 18.9597 26.3631C18.5359 26.174 18.1548 25.901 17.8395 25.5604L13.6118 21.1604L16.2573 18.6268L20.3713 22.9168L29.8698 13.4183L32.4622 16.0106L22.8134 25.6466Z" fill="#670210"/>
</g>
<defs>
<clipPath id="clip0_4320_728">
<rect width="44" height="44" fill="white"/>
</clipPath>
</defs>
</svg>
